<svg height="384pt" viewBox="0 -9 384.095 384" width="384pt" xmlns="http://www.w3.org/2000/svg"><path fill="#ccc" d="m56.765625 312.582031c36.457031 34.542969 84.824219 53.710938 135.050781 53.519531 1.054688 0 2.101563-.207031 3.078125-.617187 104.507813-1.042969 189.199219-82.460937 189.199219-182.410156 0-99.945313-84.691406-181.367188-189.199219-182.410157-.976562-.40625-2.023437-.617187-3.078125-.6132808-50.226562-.1953122-98.59375 18.9726568-135.050781 53.5156248-36.605469 34.726563-56.765625 80.71875-56.765625 129.507813 0 48.789062 20.160156 94.785156 56.765625 129.507812zm143.28125-295.800781c93 3.484375 168.269531 76.734375 168.269531 166.292969 0 89.5625-75.269531 162.8125-168.269531 166.292969zm0 0"/></svg>