<?xml version="1.0" encoding="iso-8859-1"?>
<!-- Generator: Adobe Illustrator 19.0.0, SVG Export Plug-In . SVG Version: 6.00 Build 0)  -->
<svg version="1.1" id="Capa_1" xmlns="http://www.w3.org/2000/svg" xmlns:xlink="http://www.w3.org/1999/xlink" x="0px" y="0px"
	 viewBox="0 0 512 512" style="enable-background:new 0 0 512 512;" xml:space="preserve">
<g>
	<g>
		<g>
			<path fill="#1d1d1d" d="M469.333,64H42.667C19.135,64,0,83.135,0,106.667v298.667C0,428.865,19.135,448,42.667,448h426.667
				C492.865,448,512,428.865,512,405.333V106.667C512,83.135,492.865,64,469.333,64z M234.667,394.667
				c0,5.896-4.771,10.667-10.667,10.667H53.333c-5.896,0-10.667-4.771-10.667-10.667V117.333c0-5.896,4.771-10.667,10.667-10.667
				H224c5.896,0,10.667,4.771,10.667,10.667V394.667z M464.323,265.042l-85.333,53.333c-1.729,1.083-3.688,1.625-5.656,1.625
				c-1.781,0-3.563-0.448-5.167-1.333c-3.396-1.885-5.5-5.458-5.5-9.333V288h-96c-5.896,0-10.667-4.771-10.667-10.667v-42.667
				c0-5.896,4.771-10.667,10.667-10.667h96v-21.333c0-3.875,2.104-7.448,5.5-9.333c3.365-1.875,7.521-1.781,10.823,0.292
				l85.333,53.333c3.115,1.948,5.01,5.365,5.01,9.042S467.438,263.094,464.323,265.042z"/>
			<circle cx="181.333" cy="245.333" r="10.667"/>
		</g>
	</g>
</g>
<g>
</g>
<g>
</g>
<g>
</g>
<g>
</g>
<g>
</g>
<g>
</g>
<g>
</g>
<g>
</g>
<g>
</g>
<g>
</g>
<g>
</g>
<g>
</g>
<g>
</g>
<g>
</g>
<g>
</g>
</svg>
