<?xml version="1.0" encoding="UTF-8" standalone="no"?>
<svg width="20px" height="20px" viewBox="0 0 20 20" version="1.1" xmlns="http://www.w3.org/2000/svg" xmlns:xlink="http://www.w3.org/1999/xlink">
    <!-- Generator: Sketch 42 (36781) - http://www.bohemiancoding.com/sketch -->
    <title>Fill 1</title>
    <desc>Created with Sketch.</desc>
    <defs></defs>
    <g id="Symbols" stroke="none" stroke-width="1" fill="none" fill-rule="evenodd">
        <g id="nav-mobile" transform="translate(-264.000000, -16.000000)" fill="#1d1d1d">
            <path d="M280.497129,30.3276087 C279.633715,30.1133384 278.769245,29.9022347 277.898442,29.7143524 C277.257742,29.575024 276.250778,29.5560247 275.795849,29.0103216 C275.652299,28.8393276 275.57419,28.6852219 275.546747,28.5416713 C275.446473,28.0308004 275.835959,27.6307588 276.124115,27.2655494 C276.495658,26.7958437 276.731039,26.2923613 276.957975,25.7434917 C277.000196,25.6400509 277.479401,24.3765952 277.553288,24.3882059 C277.56912,24.3903169 277.580731,24.4040386 277.596564,24.4040386 C277.936441,24.4040386 278.045159,23.9195556 278.173932,23.682064 C278.35126,23.3569642 278.514865,23.0835849 278.514865,22.715209 C278.514865,22.3288892 278.385036,21.978457 278.177099,21.7209105 C278.563419,17.9748752 276.354218,16 273.506429,16 C270.605864,16 268.41883,18.0445394 268.816761,21.7684088 C268.629934,22.0217333 268.511716,22.3510551 268.511716,22.715209 C268.511716,23.0835849 268.676377,23.3569642 268.852648,23.682064 C268.981421,23.9195556 269.09014,24.4040386 269.441628,24.3998166 C269.585178,24.4040386 269.912389,25.4711679 269.96622,25.6031077 C270.18999,26.1540884 270.43487,26.7103467 270.752582,27.213829 C270.996406,27.5990933 271.457668,27.983302 271.359505,28.4857288 C271.331006,28.6303349 271.253953,28.7844406 271.110402,28.9543791 C270.801135,29.3216995 270.223767,29.3649758 269.787838,29.4831939 C268.699598,29.7797946 267.616636,30.0816729 266.517841,30.3349973 C264.083815,30.8975887 263.991985,32.1061575 264.000429,34.2193056 C264.001485,34.470519 264.003596,34.7343986 264.003596,35.012 L283.009263,35.012 C283.009263,34.7438983 283.011374,34.4884628 283.011374,34.244638 C283.015596,33.0804011 283.065205,31.7040049 282.012853,30.9471981 C281.567425,30.6263205 281.033332,30.460604 280.497129,30.3276087" id="Fill-1"></path>
        </g>
    </g>
</svg>