<svg height="512pt" viewBox="0 0 512 512" width="512pt" xmlns="http://www.w3.org/2000/svg"><path fill="#ccc" d="m477.230469 94.003906 13.066406-72.300781-72.296875 13.066406-64.722656-34.769531-9.914063 72.800781-53.070312 50.808594 24.21875 11.6875-314.511719 314.511719 62.191406 62.191406 314.515625-314.511719 11.683594 24.21875 50.808594-53.070312 72.800781-9.910157zm-434.824219 355.804688 14.527344-14.53125 19.789062 19.789062-14.53125 14.53125zm55.519531-15.945313-19.789062-19.785156 264.980469-264.984375 13.351562 6.441406 6.4375 13.347656zm326.855469-293.523437-28.164062 29.417968-17.691407-36.679687-36.679687-17.695313 29.414062-28.164062 5.496094-40.351562 35.875 19.273437 40.074219-7.246094-7.242188 40.078125 19.273438 35.875zm0 0"/></svg>