<?xml version="1.0"?>
<svg xmlns="http://www.w3.org/2000/svg" xmlns:xlink="http://www.w3.org/1999/xlink" version="1.1" viewBox="0 0 192 192" width="50px" height="50px"><g fill="none" fill-rule="nonzero" stroke="none" stroke-width="1" stroke-linecap="butt" stroke-linejoin="miter" stroke-miterlimit="10" stroke-dasharray="" stroke-dashoffset="0" font-family="none" font-weight="none" font-size="none" text-anchor="none" style="mix-blend-mode: normal"><path d="M0,192v-192h192v192z" fill="none"/><g fill="#ffffff"><g id="surface1"><path d="M27.36,7.68l83.16,82.56l22.8,-22.8l-100.8,-58.2c-1.68,-0.975 -3.48,-1.515 -5.16,-1.56zM20.4,11.52c-0.75,1.335 -1.2,2.91 -1.2,4.68v160.44c0,1.29 0.27,2.445 0.72,3.48l85.08,-84.48zM140.28,71.4l-24.36,24.24l24.36,24.12l29.76,-17.04c4.23,-2.445 4.83,-5.55 4.8,-7.2c-0.045,-2.73 -1.77,-5.28 -4.68,-6.84c-2.535,-1.365 -21.36,-12.33 -29.88,-17.28zM110.52,101.04l-83.88,83.16c1.395,-0.075 2.91,-0.375 4.32,-1.2c3.285,-1.905 69.72,-40.32 69.72,-40.32l32.76,-18.84z"/></g></g></g></svg>
